<svg width="526" height="581" viewBox="0 0 526 581" fill="none" xmlns="http://www.w3.org/2000/svg">
<path d="M191.111 396.244L189.111 396.288L192.934 570.022L194.934 569.978L191.111 396.244Z" fill="#3F3D56"/>
<path d="M191.154 473.168C190.973 472.552 186.827 457.899 195.805 443.497L197.502 444.556C189.012 458.174 193.032 472.463 193.073 472.606L191.154 473.168V473.168Z" fill="#3F3D56"/>
<path d="M196.506 444.609C196.506 444.609 193.777 425.954 218.921 420.834C224.159 419.768 229.084 419.039 233.598 418.553C238.926 417.98 241.005 425.274 236.191 427.63C229.22 431.042 222.662 435.341 219.244 440.431C209.817 454.471 196.506 444.609 196.506 444.609V444.609Z" fill="#FFAE11"/>
<path d="M193.74 527.115L191.821 526.554C191.862 526.41 195.882 512.121 187.392 498.503L189.089 497.444C198.067 511.847 193.921 526.499 193.74 527.115V527.115Z" fill="#3F3D56"/>
<path d="M188.388 498.556C188.388 498.556 191.117 479.901 165.973 474.781C160.735 473.714 155.811 472.985 151.297 472.5C145.968 471.926 143.889 479.221 148.703 481.577C155.674 484.989 162.232 489.287 165.65 494.378C175.077 508.418 188.388 498.556 188.388 498.556H188.388Z" fill="#FFAE11"/>
<path d="M223.383 372.121C228.444 370.787 233.177 368.462 233.02 366.162C232.833 363.429 225.807 361.598 219.745 361.32C224.317 357.743 228.518 352.798 227.234 350.562C226.053 348.506 220.558 349.302 215.489 351.113C218.489 346.824 220.598 341.991 218.992 340.337C216.991 338.277 209.89 341.833 205.043 345.763C205.987 339.64 205.51 331.91 202.763 331.211C200.465 330.626 197.209 335.122 194.976 340.02C193.989 334.88 191.992 330 189.686 330C186.402 330 183.739 339.902 183.739 346.354C183.739 346.719 183.749 347.062 183.765 347.39C183.436 347.008 183.058 346.608 182.627 346.19C177.999 341.695 169.04 336.707 166.752 339.063C165.146 340.717 167.255 345.55 170.255 349.839C165.186 348.028 159.691 347.231 158.51 349.287C156.923 352.05 163.707 358.946 169.221 362.29C168.889 362.25 168.541 362.217 168.17 362.191C161.734 361.752 151.673 363.734 151.45 367.011C151.293 369.311 156.025 371.637 161.086 372.971C156.048 374.865 151.34 377.808 151.767 380.14C152.286 382.971 160.196 383.962 166.415 383.382C161.769 387.84 156.731 395.826 158.833 398.166C160.374 399.881 165.339 398.106 169.823 395.405C167.671 400.339 166.502 405.767 168.473 407.085C171.078 408.827 178.221 402.764 181.987 397.546C181.603 403.929 183.13 412.698 186.161 413.044C188.451 413.306 190.99 408.684 192.553 403.689C194.216 408.809 196.941 413.646 199.291 413.325C202.346 412.908 203.677 403.92 203.107 397.532C206.992 402.535 213.53 407.885 215.996 406.236C217.967 404.917 216.799 399.49 214.647 394.555C219.13 397.256 224.095 399.032 225.636 397.317C227.739 394.976 222.701 386.99 218.054 382.532C224.274 383.112 232.184 382.121 232.702 379.291C233.13 376.959 228.422 374.016 223.383 372.121V372.121ZM196.132 390.177C194.831 390.354 193.641 390.608 192.737 391.255C191.776 390.301 190.372 390.011 188.811 389.832C187.064 389.633 185.476 389.614 184.265 390.622C183.822 389.39 182.732 388.515 181.463 387.666C180.372 386.936 179.313 386.337 178.207 386.222C178.12 384.87 177.263 383.722 176.213 382.553C175.544 381.808 174.874 381.142 174.131 380.696C175.203 379.391 175.079 377.741 174.748 375.93C174.511 374.639 174.204 373.462 173.516 372.588C174.425 371.584 174.651 370.169 174.758 368.602C174.875 366.89 174.826 365.339 173.839 364.184C176.391 364.508 177.623 362.918 178.768 360.925C179.422 359.787 179.948 358.69 179.988 357.578C181.33 357.4 182.418 356.466 183.512 355.339C184.447 354.377 185.242 353.423 185.541 352.326C186.612 353.227 188.074 353.363 189.686 353.363C191.257 353.363 192.684 353.233 193.748 352.395C194.573 353.14 195.726 353.527 196.998 353.851C198.213 354.16 199.36 354.367 200.402 354.159C200.782 355.028 201.459 355.818 202.232 356.613C203.326 357.74 204.414 358.674 205.756 358.853C205.796 359.964 206.322 361.061 206.976 362.199C207.746 363.54 208.554 364.698 209.777 365.215C209.635 365.994 209.65 366.851 209.711 367.752C209.818 369.319 210.045 370.735 210.954 371.738C210.266 372.612 209.958 373.789 209.722 375.081C209.39 376.891 209.266 378.541 210.339 379.847C209.596 380.292 208.926 380.958 208.257 381.704C207.207 382.872 206.349 384.021 206.263 385.372C205.156 385.488 204.098 386.087 203.006 386.817C201.516 387.814 200.274 388.847 200.036 390.452C198.917 389.909 197.578 389.979 196.132 390.177V390.177Z" fill="#FFAE11"/>
<path d="M192.659 393.292C204.389 393.292 213.898 383.783 213.898 372.053C213.898 360.323 204.389 350.814 192.659 350.814C180.93 350.814 171.421 360.323 171.421 372.053C171.421 383.783 180.93 393.292 192.659 393.292Z" fill="#3F3D56"/>
<path d="M105.844 162.978L103.845 163.022L112.845 572.022L114.844 571.978L105.844 162.978Z" fill="#3F3D56"/>
<path d="M108.599 343.66C108.496 343.311 98.581 308.302 119.398 274.909L121.095 275.967C100.747 308.608 110.417 342.756 110.518 343.098L108.599 343.66V343.66Z" fill="#3F3D56"/>
<path d="M119.901 276.809C119.901 276.809 113.475 232.892 172.668 220.839C184.999 218.328 196.592 216.612 207.22 215.468C219.764 214.119 224.657 231.29 213.325 236.837C196.913 244.869 181.475 254.989 173.429 266.974C151.237 300.027 119.901 276.809 119.901 276.809V276.809Z" fill="#FFAE11"/>
<path d="M112.09 470.66L110.171 470.098C110.271 469.757 119.922 435.577 99.5933 402.967L101.291 401.908C122.107 435.302 112.192 470.311 112.09 470.66Z" fill="#3F3D56"/>
<path d="M100.788 403.809C100.788 403.809 107.213 359.892 48.0208 347.839C35.6891 345.328 24.0959 343.612 13.4689 342.468C0.924661 341.119 -3.96849 358.29 7.36361 363.837C23.7751 371.869 39.213 381.989 47.2595 393.974C69.4518 427.027 100.788 403.809 100.788 403.809V403.809Z" fill="#FFAE11"/>
<path d="M183.173 106.161C195.087 103.02 206.229 97.5457 205.859 92.1306C205.42 85.6978 188.879 81.3876 174.609 80.7317C185.372 72.3108 195.262 60.6702 192.238 55.4056C189.457 50.5655 176.522 52.4403 164.588 56.7032C171.651 46.6062 176.616 35.2286 172.835 31.3349C168.124 26.4847 151.407 34.8562 139.998 44.1098C142.219 29.6936 141.096 11.4966 134.63 9.85026C129.221 8.47294 121.554 19.0583 116.298 30.5893C113.975 18.4884 109.272 6.99997 103.844 6.99997C96.1122 6.99997 89.8442 30.3121 89.8442 45.5C89.8442 46.3585 89.867 47.1667 89.9062 47.9388C89.1301 47.0391 88.2407 46.0991 87.2264 45.1141C76.331 34.5329 55.2406 22.7882 49.8538 28.3349C46.0725 32.2286 51.0377 43.6062 58.1 53.7032C46.166 49.4403 33.2312 47.5655 30.4507 52.4055C26.7146 58.909 42.6844 75.1436 55.6654 83.0166C54.8851 82.9226 54.0652 82.8434 53.1927 82.7839C38.0402 81.75 14.3554 86.4165 13.829 94.1306C13.4595 99.5457 24.6012 105.02 36.5158 108.161C24.6537 112.62 13.5711 119.548 14.577 125.039C15.7979 131.702 34.4192 134.035 49.0606 132.67C38.1224 143.164 26.2618 161.965 31.2115 167.474C34.8388 171.512 46.528 167.333 57.0823 160.974C52.0169 172.59 49.2659 185.368 53.9055 188.471C60.0369 192.573 76.8525 178.298 85.7185 166.015C84.8151 181.042 88.4106 201.686 95.5449 202.5C100.938 203.116 106.913 192.235 110.594 180.476C114.508 192.529 120.924 203.916 126.455 203.161C133.647 202.18 136.782 181.019 135.441 165.982C144.586 177.759 159.977 190.355 165.783 186.471C170.423 183.368 167.672 170.59 162.606 158.974C173.161 165.333 184.85 169.512 188.477 165.474C193.427 159.965 181.566 141.164 170.628 130.67C185.269 132.035 203.891 129.702 205.111 123.039C206.117 117.548 195.035 110.62 183.173 106.161L183.173 106.161ZM119.019 148.666C115.956 149.084 113.156 149.681 111.026 151.205C108.764 148.959 105.459 148.275 101.785 147.856C97.6713 147.386 93.9328 147.34 91.0819 149.714C90.0387 146.815 87.4737 144.755 84.4857 142.756C81.9165 141.038 79.4249 139.627 76.8203 139.355C76.6168 136.174 74.5976 133.47 72.1263 130.719C70.5505 128.965 68.974 127.396 67.2246 126.347C69.7486 123.274 69.4576 119.39 68.6766 115.127C68.1196 112.087 67.3958 109.317 65.7764 107.259C67.9169 104.896 68.4497 101.564 68.7015 97.8747C68.9763 93.8463 68.8621 90.1938 66.5368 87.4741C72.5459 88.2384 75.4459 84.4948 78.1412 79.8029C79.681 77.1227 80.9189 74.5408 81.013 71.9238C84.1732 71.5042 86.7332 69.3055 89.3095 66.6527C91.5103 64.3865 93.3824 62.1426 94.0856 59.56C96.6074 61.6793 100.048 62 103.844 62C107.542 62 110.903 61.6953 113.406 59.7205C115.349 61.4763 118.063 62.387 121.059 63.1497C123.918 63.8777 126.617 64.3647 129.071 63.8746C129.967 65.9211 131.56 67.7795 133.379 69.6527C135.955 72.3055 138.515 74.5042 141.675 74.9238C141.77 77.5409 143.008 80.1228 144.547 82.8029C146.36 85.9578 148.263 88.6857 151.142 89.9028C150.806 91.7354 150.842 93.7526 150.987 95.8747C151.239 99.5641 151.772 102.896 153.912 105.259C152.293 107.317 151.569 110.087 151.012 113.128C150.231 117.39 149.94 121.274 152.464 124.347C150.714 125.396 149.138 126.965 147.562 128.719C145.091 131.47 143.072 134.174 142.868 137.355C140.264 137.627 137.772 139.038 135.203 140.756C131.694 143.104 128.771 145.537 128.209 149.314C125.576 148.037 122.424 148.202 119.019 148.666V148.666Z" fill="#FFAE11"/>
<path d="M110.844 156C138.458 156 160.844 133.614 160.844 106C160.844 78.3858 138.458 56 110.844 56C83.23 56 60.8442 78.3858 60.8442 106C60.8442 133.614 83.23 156 110.844 156Z" fill="#3F3D56"/>
<path d="M471.856 368.816L467.762 368.906L472.166 569.022L476.26 568.932L471.856 368.816Z" fill="#3F3D56"/>
<path d="M470.15 457.694C469.937 456.968 465.056 439.716 475.608 422.79L479.083 424.958C469.53 440.28 474.035 456.384 474.081 456.544L470.15 457.694V457.694Z" fill="#3F3D56"/>
<path d="M477.176 424.546C477.176 424.546 474.032 403.058 502.994 397.161C509.027 395.932 514.7 395.092 519.899 394.533C526.037 393.873 528.431 402.274 522.886 404.988C514.857 408.918 507.303 413.87 503.366 419.734C492.508 435.906 477.176 424.546 477.176 424.546V424.546Z" fill="#FFAE11"/>
<path d="M474.85 519.831L470.919 518.682C470.965 518.522 475.47 502.42 465.917 487.098L469.392 484.93C479.944 501.856 475.063 519.105 474.85 519.831V519.831Z" fill="#3F3D56"/>
<path d="M467.824 486.684C467.824 486.684 470.968 465.197 442.006 459.299C435.973 458.071 430.3 457.231 425.101 456.671C418.963 456.011 416.569 464.413 422.114 467.127C430.143 471.057 437.697 476.008 441.634 481.872C452.492 498.044 467.824 486.684 467.824 486.684V486.684Z" fill="#FFAE11"/>
<path d="M508.133 341.051C513.963 339.514 519.415 336.836 519.234 334.186C519.019 331.039 510.926 328.93 503.943 328.609C509.21 324.489 514.049 318.793 512.569 316.217C511.208 313.849 504.88 314.767 499.041 316.852C502.496 311.912 504.925 306.345 503.075 304.44C500.771 302.067 492.591 306.163 487.009 310.691C488.095 303.637 487.546 294.734 484.382 293.928C481.736 293.254 477.985 298.433 475.413 304.075C474.276 298.155 471.975 292.534 469.32 292.534C465.536 292.534 462.47 303.94 462.47 311.371C462.47 311.791 462.481 312.186 462.5 312.564C462.12 312.124 461.685 311.664 461.189 311.182C455.858 306.005 445.539 300.258 442.903 302.972C441.053 304.877 443.482 310.444 446.938 315.384C441.099 313.299 434.77 312.381 433.41 314.75C431.582 317.932 439.395 325.875 445.747 329.727C445.365 329.681 444.964 329.642 444.537 329.613C437.123 329.107 425.535 331.39 425.277 335.165C425.096 337.814 430.548 340.493 436.377 342.03C430.573 344.211 425.151 347.601 425.643 350.288C426.24 353.548 435.351 354.689 442.515 354.021C437.163 359.156 431.36 368.355 433.782 371.05C435.557 373.026 441.276 370.981 446.44 367.87C443.962 373.554 442.616 379.805 444.886 381.324C447.886 383.331 456.113 376.346 460.451 370.336C460.009 377.689 461.768 387.789 465.259 388.188C467.898 388.489 470.821 383.166 472.622 377.412C474.537 383.309 477.677 388.881 480.383 388.511C483.901 388.031 485.435 377.678 484.779 370.32C489.254 376.083 496.784 382.246 499.625 380.345C501.895 378.827 500.549 372.575 498.071 366.892C503.235 370.003 508.954 372.047 510.729 370.072C513.151 367.376 507.347 358.177 501.996 353.043C509.159 353.711 518.27 352.569 518.868 349.309C519.36 346.623 513.937 343.233 508.133 341.051V341.051ZM476.744 361.848C475.246 362.053 473.876 362.345 472.834 363.09C471.727 361.991 470.11 361.657 468.312 361.451C466.299 361.222 464.47 361.199 463.075 362.361C462.565 360.942 461.31 359.934 459.848 358.956C458.591 358.116 457.372 357.425 456.097 357.292C455.998 355.736 455.01 354.413 453.801 353.067C453.03 352.208 452.258 351.441 451.402 350.928C452.637 349.424 452.495 347.524 452.113 345.438C451.84 343.951 451.486 342.595 450.694 341.588C451.741 340.432 452.002 338.802 452.125 336.997C452.259 335.026 452.204 333.239 451.066 331.908C454.006 332.282 455.425 330.45 456.744 328.155C457.497 326.843 458.103 325.58 458.149 324.299C459.695 324.094 460.948 323.018 462.208 321.72C463.285 320.612 464.201 319.514 464.545 318.25C465.779 319.287 467.462 319.444 469.32 319.444C471.129 319.444 472.773 319.295 473.998 318.329C474.949 319.188 476.277 319.633 477.742 320.006C479.141 320.363 480.462 320.601 481.663 320.361C482.101 321.362 482.88 322.272 483.77 323.188C485.031 324.486 486.284 325.562 487.83 325.767C487.876 327.048 488.481 328.311 489.235 329.622C490.122 331.166 491.053 332.501 492.462 333.096C492.297 333.993 492.315 334.98 492.386 336.018C492.509 337.823 492.77 339.454 493.817 340.61C493.024 341.617 492.67 342.972 492.398 344.46C492.016 346.545 491.873 348.446 493.108 349.949C492.252 350.463 491.481 351.23 490.71 352.088C489.501 353.434 488.513 354.757 488.413 356.314C487.139 356.447 485.92 357.137 484.663 357.978C482.946 359.126 481.516 360.317 481.241 362.165C479.953 361.54 478.41 361.621 476.744 361.848V361.848Z" fill="#FFAE11"/>
<path d="M472.745 365.436C486.256 365.436 497.209 354.483 497.209 340.972C497.209 327.461 486.256 316.508 472.745 316.508C459.234 316.508 448.281 327.461 448.281 340.972C448.281 354.483 459.234 365.436 472.745 365.436Z" fill="#3F3D56"/>
<path d="M300.935 329.988H300.935C329.504 329.988 352.697 353.182 352.697 381.75V398.794H300.935V329.988V329.988Z" fill="#2F2E41"/>
<path d="M321.135 377.963C335.429 377.963 347.016 366.375 347.016 352.082C347.016 337.788 335.429 326.201 321.135 326.201C306.842 326.201 295.254 337.788 295.254 352.082C295.254 366.375 306.842 377.963 321.135 377.963Z" fill="#FFB6B6"/>
<path d="M338.494 484.327L314.507 470.44C314.507 470.44 281.682 437.56 280.736 453.081C279.789 468.601 259.905 523.012 305.196 531.444C350.488 539.877 378.894 523.464 378.894 523.464L365.638 498.214L338.494 484.327V484.327Z" fill="#2F2E41"/>
<path d="M252.311 433.129L238.883 456.794L253.457 515.325L264.567 511.711L265.674 458.66L272.471 444.989L252.311 433.129Z" fill="#FFB6B6"/>
<path d="M317.982 402.081C317.982 402.081 297.822 390.221 288.379 395.319C278.937 400.418 248.295 438.04 248.295 438.04L274.772 456.364L317.982 402.081V402.081Z" fill="#FFAE11"/>
<path d="M306.902 532.298L267.901 529.171L266.208 550.923L310.642 550.262L306.902 532.298Z" fill="#FFB6B6"/>
<path d="M335.338 378.909L308.826 382.066L305.039 395.322L286.101 401.634L296.832 469.809C296.832 469.809 327.132 474.227 338.494 490.008C349.857 505.789 370.057 508.314 370.057 508.314V458.2L368.794 391.534L342.282 387.116L335.338 378.909V378.909Z" fill="#FFAE11"/>
<path d="M361.85 508.946C361.85 508.946 406.038 505.158 414.875 513.996C423.712 522.833 426.869 539.245 416.137 546.82C405.406 554.395 376.369 552.501 376.369 552.501L370.688 520.939L361.85 508.946H361.85Z" fill="#2F2E41"/>
<path d="M382.681 517.783L301.882 529.777L301.07 552.712L376.369 552.501L382.681 517.783Z" fill="#2F2E41"/>
<path d="M391.519 451.502L387.416 473.912L345.122 519.361L337.863 510.208L366.269 465.39L368.163 450.24L391.519 451.502Z" fill="#FFB6B6"/>
<path d="M294.76 534.227C294.76 534.227 279.053 535.754 277.535 539.707C276.017 543.66 278.068 551.706 278.068 551.706L228.698 545.849C225.128 545.425 222.971 541.634 224.496 538.379C227.7 531.541 235.092 522.159 251.261 523.87C276.252 526.513 287.823 521.583 287.823 521.583L300.995 531.491L294.76 534.227V534.227Z" fill="#2F2E41"/>
<path d="M353.96 389.325C353.96 389.325 377.316 390.587 382.366 400.056C387.416 409.525 392.15 457.815 392.15 457.815L359.957 458.446L353.96 389.325V389.325Z" fill="#FFAE11"/>
<path d="M299.673 498.53L306.617 537.036L328.079 533.114L316.085 490.324L299.673 498.53Z" fill="#FFB6B6"/>
<path d="M330.919 527.883L301.882 528.514L303.776 561.339C303.776 561.339 303.145 579.63 318.926 579.637C334.707 579.645 341.019 580.907 341.019 577.751C341.019 574.595 337.863 556.018 337.863 556.018L330.919 536.089V527.883V527.883Z" fill="#2F2E41"/>
<path d="M318.926 501.371L294.939 506.421C279.234 471.917 269.661 438.725 268.426 407.315C268.426 407.315 265.901 387.747 285.47 387.116C305.038 386.484 307.563 415.522 307.563 415.522L318.926 501.371V501.371Z" fill="#2F2E41"/>
<path d="M341.935 528.302C348.065 522.673 350.216 515.04 346.739 511.254C343.262 507.468 335.474 508.962 329.344 514.592C323.214 520.221 321.064 527.854 324.541 531.64C328.018 535.426 335.805 533.932 341.935 528.302Z" fill="#FFB6B6"/>
<path d="M262.578 534.482C267.67 533.78 270.878 526.528 269.742 518.283C268.606 510.039 263.558 503.924 258.465 504.625C253.373 505.327 250.166 512.579 251.301 520.824C252.437 529.068 257.486 535.183 262.578 534.482Z" fill="#FFB6B6"/>
<path d="M370.684 373.02C369.367 369.017 366.769 365.512 365.606 361.462C364.062 356.084 360.775 368.015 360.454 362.429C359.845 351.812 343.642 324.503 334.391 319.257C325.141 314.011 319.828 315.593 310.404 320.519C310.404 320.519 305.829 320.81 300.134 323.622C294.439 326.434 289.313 330.937 287.098 336.889C285.342 341.608 285.536 346.789 284.949 351.789C283.315 365.719 275.506 378.967 277.182 392.892C277.705 397.237 279.357 401.729 282.909 404.285C286.461 406.84 292.2 406.562 294.538 402.863C295.336 401.601 295.673 400.104 296.357 398.776C297.041 397.449 298.276 396.211 299.769 396.253C302.013 396.315 303.155 399.325 302.27 401.388C301.385 403.451 299.306 404.696 297.354 405.804C302.003 407.895 307.771 407.244 311.836 404.168C315.902 401.093 318.097 395.72 317.349 390.677C316.295 383.571 305.942 385.042 304.723 377.963C303.835 372.809 300.717 364.185 301.567 359.025C302.416 353.865 306.494 360.113 302.198 357.131C306.925 359.41 317.035 343.822 321.984 342.076C326.932 340.33 331.128 336.549 333.378 331.808C338.626 339.417 343.243 337.351 345.122 346.4C347.002 355.45 345.264 376.01 337.525 381.063C340.622 383.176 343.091 386.198 344.544 389.655C345.368 391.613 345.902 393.756 347.268 395.382C349.878 398.488 354.697 398.677 358.538 397.371C363.301 395.752 367.373 392.195 369.619 387.693C371.864 383.191 372.256 377.798 370.684 373.02H370.684Z" fill="#2F2E41"/>
</svg>
