<svg width="87" height="43" viewBox="0 0 87 43" fill="none" xmlns="http://www.w3.org/2000/svg">
<g clip-path="url(#clip0_501_2)">
<path d="M1 43V2.8H4V43H1ZM40.1 43V2.8H43.1V43H40.1ZM7.6 43V2.8H10.6L22 17.1L33.5 2.8H36.5V43H33.5V18.1L26.3 27.3L10.6 7.6V13.4L24 30.1L22.1 32.5L10.6 18.2V43H7.6ZM33.5 7.5L24 19.5L26.3 22.4L33.5 13.3V7.5Z" fill="#FFAE11"/>
<path d="M50.2897 3.24C50.2897 2.30667 50.607 1.56 51.2417 0.999997C51.8763 0.402664 52.7163 0.103998 53.7617 0.103998C54.807 0.103998 55.647 0.402664 56.2817 0.999997C56.9163 1.56 57.2337 2.30667 57.2337 3.24C57.2337 4.17333 56.9163 4.93866 56.2817 5.536C55.647 6.096 54.807 6.376 53.7617 6.376C52.7163 6.376 51.8763 6.096 51.2417 5.536C50.607 4.93866 50.2897 4.17333 50.2897 3.24ZM56.2817 12.256V43H51.1857V12.256H56.2817ZM69.5707 1.56V43H64.4747V1.56H69.5707ZM76.8678 3.24C76.8678 2.30667 77.1851 1.56 77.8198 0.999997C78.4544 0.402664 79.2944 0.103998 80.3398 0.103998C81.3851 0.103998 82.2251 0.402664 82.8598 0.999997C83.4944 1.56 83.8118 2.30667 83.8118 3.24C83.8118 4.17333 83.4944 4.93866 82.8598 5.536C82.2251 6.096 81.3851 6.376 80.3398 6.376C79.2944 6.376 78.4544 6.096 77.8198 5.536C77.1851 4.93866 76.8678 4.17333 76.8678 3.24ZM82.8598 12.256V43H77.7638V12.256H82.8598Z" fill="white"/>
</g>
<defs>
<clipPath id="clip0_501_2">
<rect width="87" height="43" fill="white"/>
</clipPath>
</defs>
</svg>
