<svg version="1.1" xmlns="http://www.w3.org/2000/svg" viewBox="0 0 100 100" height="100%" width="100%">
	<g>
		<path fill="#1B75BB" d="M20.177,91.253c0,0-3.145-7.392,10.067-13.84c13.213-6.449,27.37-12.897,24.222-21.077    c-4.402-6.292-9.753-5.032-9.753-5.032s6.23,7.424-5.689,12.74C25.25,70.192,10.584,76.781,20.177,91.253z" data-part-id="logo__item--logo_0__0"></path>
		<path fill="#1B75BB" d="M79.078,22.478c0,0,0.523,10.137-17.957,12.053c-18.483,1.916-38.081,3.42-37.899,14.495    c2.494,9.377,9.387,10.205,9.387,10.205s-4.167-11.512,12.287-12.649C63.913,45.271,84.181,43.817,79.078,22.478z" data-part-id="logo__item--logo_0__1"></path>
		<path fill="#FFF" d="M89.25,14.172c0,0-7.939,5.058-10.74-3.932c0,0,4.86,6.882-4.62,11.343c0,0,8.452-5.492,11.315,3.638    C85.205,25.222,82.086,16.467,89.25,14.172z" data-part-id="logo__item--logo_0__2"></path>
		<path fill="#1B75BB" d="M56.305,28.663c-1.145,3.126-4.607,4.733-7.733,3.589c-3.126-1.144-4.733-4.607-3.589-7.733    c1.144-3.125,4.604-4.732,7.73-3.591C55.842,22.075,57.448,25.535,56.305,28.663z" data-part-id="logo__item--logo_0__3"></path>
		<path fill="#1B75BB" d="M58.143,28.576c2.7,1.181,5.201,2.745,7.433,4.613c1.863-0.462,3.501-1.003,4.93-1.594    c-3.576-3.52-7.899-6.28-12.713-8.012C58.437,25.122,58.596,26.869,58.143,28.576z" data-part-id="logo__item--logo_0__4"></path>
		<path fill="#1B75BB" d="M20.924,73.888c-3.422-4.93-5.438-10.909-5.438-17.354c0-15.77,12.037-28.782,27.406-30.339    c0.038-0.757,0.188-1.52,0.466-2.273c0.325-0.887,0.8-1.678,1.382-2.36C26.01,22.218,10.975,37.646,10.975,56.533    c0,7.789,2.563,14.991,6.883,20.814C18.683,76.131,19.718,74.978,20.924,73.888z" data-part-id="logo__item--logo_0__5"></path>
		<path fill="#FFF" d="M76.418,39.276c-1.122,0.924-2.391,1.741-3.782,2.472c2.441,4.382,3.839,9.424,3.839,14.786    c0,16.815-13.681,30.495-30.495,30.495c-7.355,0-14.107-2.614-19.379-6.968c-1.447,0.959-2.632,1.915-3.592,2.851    c6.152,5.367,14.185,8.627,22.971,8.627c19.301,0,35.005-15.7,35.005-35.005C80.985,50.259,79.322,44.37,76.418,39.276z" data-part-id="logo__item--logo_0__6"></path>
	</g>
</svg>